<?xml version="1.0" standalone="no"?><!DOCTYPE svg PUBLIC "-//W3C//DTD SVG 1.1//EN" "http://www.w3.org/Graphics/SVG/1.1/DTD/svg11.dtd"><svg t="1646801228887" class="icon" viewBox="0 0 1030 1024" version="1.1" xmlns="http://www.w3.org/2000/svg" p-id="8888" xmlns:xlink="http://www.w3.org/1999/xlink" width="201.171875" height="200"><defs><style type="text/css"></style></defs><path d="M812.136 437.374c-77.007 0-134.428 29.861-185.749 92.313 0 0-15.626 17.82-44.577 1.123-36.658-21.138-5.566-60.203-5.566-60.203 91.403-119.284 204.64-112.809 204.64-112.809S720.038 161.614 495.65 161.935a306.103 306.103 0 0 0-303.32 267.251C86.961 444.224 5.673 533.968 5.673 643.512a217.43 217.43 0 0 0 217.429 217.43c0.91 0 1.712-0.161 2.569-0.161v0.16h566.023v-0.856c6.85 0.696 13.485 2.087 20.496 2.087a212.453 212.453 0 0 0-0.054-424.798z" fill="#20A0FF" p-id="8889"></path></svg>